# xmcd CD database file
#
# Track frame offsets:
#	150
#	16997
#	36223
#	65504
#	83596
#	102918
#	130566
#
# Disc length: 2521 seconds
#
# Revision: 0
# Processed by: cddbd v1.4PL0 Copyright (c) Steve Scherf et al.
# Submitted via: Feurio! 1.65 - http://www.feurio.com
#
DISCID=4c09d707
DTITLE=ZOE - The Pure Madness
DYEAR=1900
DGENRE=
TTITLE0=Your Way
TTITLE1=In You
TTITLE2=Anne - Elise
TTITLE3=Hey Daddy
TTITLE4=Beautiful Place
TTITLE5=I Miss Me So
TTITLE6=Fame
EXTD=
EXTT0=
EXTT1=
EXTT2=
EXTT3=
EXTT4=
EXTT5=
EXTT6=
PLAYORDER=
